# xmcd CD database file
#
# Track frame offsets:
#	150
#	23368
#	44773
#	62017
#	80383
#	102240
#	125252
#	154690
#	182819
#	203519
#	218781
#	243351
#
# Disc length: 3663 seconds
#
# Revision: 10
# Processed by: cddbd v1.5.2PL0 Copyright (c) Steve Scherf et al.
# Submitted via: CDex 1.70beta3
#
DISCID=960e4d0c
DTITLE=THE YELLOW MONKEY - jaguar hard pain
DYEAR=1994
DGENRE=J-Rock
TTITLE0=SECOND CRY
TTITLE1=FINE FINE FINE
TTITLE2=A HENな飴玉
TTITLE3=ROCK STAR
TTITLE4=薔薇娼婦麗奈
TTITLE5=街の灯
TTITLE6=RED LIGHT
TTITLE7=セルリアの丘
TTITLE8=悲しきASIAN BOY
TTITLE9=赤裸々GO!GO!GO!
TTITLE10=遥かな世界
TTITLE11=MERRY X'MAS
EXTD=YEAR: 1994
EXTT0=
EXTT1=
EXTT2=
EXTT3=
EXTT4=
EXTT5=
EXTT6=
EXTT7=
EXTT8=
EXTT9=
EXTT10=
EXTT11=
PLAYORDER=
